# xmcd
#
# Track frame offsets:
#	150
#	13847
#	26500
#
# Disc length: 557 seconds
#
# Revision: 0
# Processed by: cddbd v1.5.2PL0 Copyright (c) Steve Scherf et al.
# Submitted via: audiograbber 1.83.01
#
DISCID=1a022b03
DTITLE=Tom Astor - Ich bin wie ich bin (Maxi)
DYEAR=1900
DGENRE=Country
TTITLE0=Ich bin wie ich bin
TTITLE1=Spar dir dein Lächeln nicht für morgen auf
TTITLE2=Harte Zeiten (Holz geht nicht unter)
EXTD=
EXTT0=
EXTT1=
EXTT2=
PLAYORDER=
